<svg width="35" height="35" viewBox="0 0 35 35" fill="none" xmlns="http://www.w3.org/2000/svg">
<path d="M33.8333 22.1666V23.3333H35V22.1666H33.8333ZM1.16667 5.83329V4.66663H0V5.83329H1.16667ZM1.16667 29.1666H0V30.3333H1.16667V29.1666ZM18.6667 22.1666C18.6667 24.3326 19.5271 26.4098 21.0586 27.9413C22.5902 29.4729 24.6674 30.3333 26.8333 30.3333V28C25.2862 28 23.8025 27.3854 22.7085 26.2914C21.6146 25.1974 21 23.7137 21 22.1666H18.6667ZM26.8333 14C24.6674 14 22.5902 14.8604 21.0586 16.3919C19.5271 17.9235 18.6667 20.0007 18.6667 22.1666H21C21 20.6195 21.6146 19.1358 22.7085 18.0418C23.8025 16.9479 25.2862 16.3333 26.8333 16.3333V14ZM35 22.1666C35 20.0007 34.1396 17.9235 32.608 16.3919C31.0765 14.8604 28.9993 14 26.8333 14V16.3333C28.3804 16.3333 29.8642 16.9479 30.9581 18.0418C32.0521 19.1358 32.6667 20.6195 32.6667 22.1666H35ZM31.563 25.5826C31.0228 26.3317 30.3122 26.9416 29.4898 27.3619C28.6674 27.7822 27.7569 28.0009 26.8333 28V30.3333C28.1259 30.3341 29.4001 30.0278 30.551 29.4396C31.7019 28.8513 32.6966 27.998 33.453 26.95L31.563 25.5826ZM1.16667 6.99996H7V4.66663H1.16667V6.99996ZM7 16.3333H1.16667V18.6666H7V16.3333ZM2.33333 17.5V5.83329H0V17.5H2.33333ZM11.6667 11.6666C11.6667 12.9043 11.175 14.0913 10.2998 14.9665C9.42466 15.8416 8.23768 16.3333 7 16.3333V18.6666C8.85652 18.6666 10.637 17.9291 11.9497 16.6164C13.2625 15.3036 14 13.5231 14 11.6666H11.6667ZM7 6.99996C8.23768 6.99996 9.42466 7.49162 10.2998 8.36679C11.175 9.24196 11.6667 10.4289 11.6667 11.6666H14C14 9.81011 13.2625 8.02963 11.9497 6.71688C10.637 5.40412 8.85652 4.66663 7 4.66663V6.99996ZM1.16667 18.6666H9.33333V16.3333H1.16667V18.6666ZM9.33333 28H1.16667V30.3333H9.33333V28ZM2.33333 29.1666V17.5H0V29.1666H2.33333ZM14 23.3333C14 24.571 13.5083 25.7579 12.6332 26.6331C11.758 27.5083 10.571 28 9.33333 28V30.3333C11.1898 30.3333 12.9703 29.5958 14.2831 28.283C15.5958 26.9703 16.3333 25.1898 16.3333 23.3333H14ZM9.33333 18.6666C10.571 18.6666 11.758 19.1583 12.6332 20.0335C13.5083 20.9086 14 22.0956 14 23.3333H16.3333C16.3333 21.4768 15.5958 19.6963 14.2831 18.3835C12.9703 17.0708 11.1898 16.3333 9.33333 16.3333V18.6666ZM19.8333 23.3333H33.8333V21H19.8333V23.3333ZM21 9.33329H32.6667V6.99996H21V9.33329Z" fill="white"/>
</svg>
