<svg width="15" height="11" viewBox="0 0 15 11" fill="none" xmlns="http://www.w3.org/2000/svg">
<path d="M14.5 7.5V8H15V7.5H14.5ZM0.5 0.5V0H0V0.5H0.5ZM0.5 10.5H0V11H0.5V10.5ZM8 7.5C8 8.42826 8.36875 9.3185 9.02513 9.97487C9.6815 10.6313 10.5717 11 11.5 11V10C10.837 10 10.2011 9.73661 9.73223 9.26777C9.26339 8.79893 9 8.16304 9 7.5H8ZM11.5 4C10.5717 4 9.6815 4.36875 9.02513 5.02513C8.36875 5.6815 8 6.57174 8 7.5H9C9 6.83696 9.26339 6.20107 9.73223 5.73223C10.2011 5.26339 10.837 5 11.5 5V4ZM15 7.5C15 6.57174 14.6313 5.6815 13.9749 5.02513C13.3185 4.36875 12.4283 4 11.5 4V5C12.163 5 12.7989 5.26339 13.2678 5.73223C13.7366 6.20107 14 6.83696 14 7.5H15ZM13.527 8.964C13.2955 9.28503 12.9909 9.5464 12.6385 9.72654C12.286 9.90667 11.8958 10.0004 11.5 10V11C12.0539 11.0004 12.6 10.8691 13.0933 10.617C13.5865 10.3649 14.0128 9.99917 14.337 9.55L13.527 8.964ZM0.5 1H3V0H0.5V1ZM3 5H0.5V6H3V5ZM1 5.5V0.5H0V5.5H1ZM5 3C5 3.53043 4.78929 4.03914 4.41421 4.41421C4.03914 4.78929 3.53043 5 3 5V6C3.79565 6 4.55871 5.68393 5.12132 5.12132C5.68393 4.55871 6 3.79565 6 3H5ZM3 1C3.53043 1 4.03914 1.21071 4.41421 1.58579C4.78929 1.96086 5 2.46957 5 3H6C6 2.20435 5.68393 1.44129 5.12132 0.87868C4.55871 0.316071 3.79565 0 3 0V1ZM0.5 6H4V5H0.5V6ZM4 10H0.5V11H4V10ZM1 10.5V5.5H0V10.5H1ZM6 8C6 8.53043 5.78929 9.03914 5.41421 9.41421C5.03914 9.78929 4.53043 10 4 10V11C4.79565 11 5.55871 10.6839 6.12132 10.1213C6.68393 9.55871 7 8.79565 7 8H6ZM4 6C4.53043 6 5.03914 6.21071 5.41421 6.58579C5.78929 6.96086 6 7.46957 6 8H7C7 7.20435 6.68393 6.44129 6.12132 5.87868C5.55871 5.31607 4.79565 5 4 5V6ZM8.5 8H14.5V7H8.5V8ZM9 2H14V1H9V2Z" fill="black"/>
</svg>
