<svg width="38" height="30" viewBox="0 0 45 35" fill="none" xmlns="http://www.w3.org/2000/svg">
<path d="M7.00899 0H37.3813C39.2402 0 41.0229 0.737498 42.3374 2.05025C43.6518 3.36301 44.3902 5.14348 44.3902 7V28C44.3902 29.8565 43.6518 31.637 42.3374 32.9497C41.0229 34.2625 39.2402 35 37.3813 35H7.00899C5.15009 35 3.36732 34.2625 2.05288 32.9497C0.738445 31.637 0 29.8565 0 28V7C0 5.14348 0.738445 3.36301 2.05288 2.05025C3.36732 0.737498 5.15009 0 7.00899 0V0ZM7.00899 2.33333C5.86886 2.33333 4.82218 2.74167 4.01148 3.42067L22.1951 15.2133L40.3788 3.42067C39.539 2.71696 38.4775 2.3319 37.3813 2.33333H7.00899ZM22.1951 17.9947L2.6494 5.32C2.44213 5.85591 2.33599 6.4255 2.33633 7V28C2.33633 29.2377 2.82862 30.4247 3.70492 31.2998C4.58121 32.175 5.76972 32.6667 7.00899 32.6667H37.3813C38.6205 32.6667 39.809 32.175 40.6853 31.2998C41.5616 30.4247 42.0539 29.2377 42.0539 28V7C42.0539 6.40733 41.9441 5.84033 41.7408 5.32L22.1951 17.9923V17.9947Z" fill="white"/>
</svg>
