<svg width="41" height="35" viewBox="0 0 41 35" fill="none" xmlns="http://www.w3.org/2000/svg">
<path d="M40.2179 5.26353C40.1577 5.11816 40.0558 4.99391 39.925 4.90647C39.7942 4.81904 39.6404 4.77236 39.4831 4.77233H32.9606C32.2343 3.35362 31.1351 2.15969 29.7811 1.31887C28.4271 0.478052 26.8695 0.0221362 25.2759 0.000131727C22.941 -0.012625 20.6966 0.901621 19.0352 2.54216C17.3738 4.1827 16.4313 6.41545 16.4146 8.75025V10.9696C7.80088 9.11119 1.98145 1.96314 1.92199 1.88896C1.82664 1.7697 1.69898 1.68041 1.55425 1.63173C1.40953 1.58306 1.25385 1.57707 1.10581 1.61448C0.95777 1.65189 0.823625 1.73111 0.719393 1.8427C0.615161 1.95428 0.545245 2.0935 0.517995 2.24374C-1.18032 11.5837 1.61912 17.3763 4.26623 20.5907C5.78675 22.45 7.67615 23.974 9.81519 25.0664C7.89554 28.8429 1.21522 30.2284 1.14423 30.2429C1.00312 30.2713 0.872346 30.3373 0.765838 30.4341C0.659331 30.5309 0.581081 30.6548 0.539425 30.7926C0.49777 30.9303 0.49427 31.0768 0.5293 31.2164C0.56433 31.356 0.636575 31.4835 0.738339 31.5853C0.877546 31.7245 4.22924 35 10.8463 35C17.7557 35 23.6672 32.5026 27.9421 27.778C31.6662 23.6616 33.8321 18.0236 33.9124 12.2632L40.0455 6.13019C40.1567 6.01894 40.2324 5.8772 40.2631 5.72291C40.2938 5.56861 40.2781 5.40867 40.2179 5.26333V5.26353ZM32.5569 11.3689C32.483 11.4428 32.4244 11.5305 32.3844 11.627C32.3444 11.7236 32.3239 11.827 32.3239 11.9315C32.3239 17.4172 30.2968 22.8041 26.7624 26.7105C22.7976 31.0929 17.2936 33.4091 10.8463 33.4091C7.10087 33.4091 4.51043 32.2397 3.10485 31.3733C5.64596 30.6001 10.34 28.6934 11.601 24.9105C11.6661 24.7152 11.6529 24.5023 11.5643 24.3165C11.4757 24.1307 11.3185 23.9865 11.1257 23.9142C11.0959 23.9029 8.1129 22.7588 5.49442 19.5793C2.23481 15.6213 1.00383 10.4424 1.82654 4.16718C4.10435 6.54343 9.60957 11.4713 17.0792 12.7162C17.1932 12.7352 17.3099 12.7292 17.4213 12.6985C17.5327 12.6678 17.636 12.6132 17.7242 12.5386C17.8124 12.4639 17.8832 12.3709 17.9318 12.266C17.9804 12.1612 18.0055 12.0471 18.0055 11.9315V8.75005C18.0223 6.84069 18.7945 5.01567 20.1532 3.67408C21.5119 2.33248 23.3465 1.58348 25.256 1.59086C26.6333 1.60993 27.9761 2.02512 29.1239 2.78684C30.2716 3.54855 31.1758 4.62458 31.7285 5.88637C31.7904 6.02809 31.8923 6.14868 32.0217 6.23338C32.1511 6.31808 32.3024 6.36321 32.4571 6.36326H37.5624L32.5569 11.3689Z" fill="#000000"/>
</svg>
