<svg xmlns="http://www.w3.org/2000/svg" viewBox="0 0 131.31 131.29"><defs><style>.cls-1{font-size:13.5px;font-family:Poppins-Medium, Poppins;font-weight:500;}</style></defs><g id="Layer_2" data-name="Layer 2"><g id="Layer_1-2" data-name="Layer 1"><text class="cls-1" transform="translate(70.55 11.64) rotate(6.97)">I</text><text class="cls-1" transform="matrix(0.98, 0.18, -0.18, 0.98, 73.95, 12.05)">l</text><text class="cls-1" transform="translate(77.32 12.68) rotate(14.25)">l</text><text class="cls-1" transform="translate(80.59 13.35) rotate(20.55)">u</text><text class="cls-1" transform="matrix(0.88, 0.48, -0.48, 0.88, 88.49, 16.34)">s</text><text class="cls-1" transform="matrix(0.82, 0.57, -0.57, 0.82, 94.59, 19.73)">t</text><text class="cls-1" transform="translate(98.56 22.49) rotate(40.07)">r</text><text class="cls-1" transform="translate(102.42 25.55) rotate(47.31)">a</text><text class="cls-1" transform="matrix(0.58, 0.81, -0.81, 0.58, 108.36, 32.15)">t</text><text class="cls-1" transform="translate(111.22 35.97) rotate(61.25)">e</text><text class="cls-1" transform="translate(115.13 42.97) rotate(70.18)">d</text><text class="cls-1" transform="translate(118.09 51.3) rotate(78.75)">J</text><text class="cls-1" transform="translate(119.56 58.46) rotate(86.73)">S</text><text class="cls-1" transform="matrix(-0.05, 1, -1, -0.05, 119.9, 66.4)"> </text><text class="cls-1" transform="translate(119.76 69.76) rotate(96.14)">i</text><text class="cls-1" transform="translate(119.49 73.1) rotate(101.61)">s</text><text class="cls-1" transform="translate(118.01 79.95) rotate(107.1)"> </text><text class="cls-1" transform="translate(117.21 83.14) rotate(113.58)">a</text><text class="cls-1" transform="matrix(-0.5, 0.87, -0.87, -0.5, 113.51, 91.24)"> </text><text class="cls-1" transform="matrix(-0.55, 0.83, -0.83, -0.55, 111.83, 94.16)">l</text><text class="cls-1" transform="matrix(-0.64, 0.77, -0.77, -0.64, 110.09, 97.02)">e</text><text class="cls-1" transform="translate(105.03 103.22) rotate(138.46)">a</text><text class="cls-1" transform="translate(98.32 109.02) rotate(145.7)">r</text><text class="cls-1" transform="translate(94.32 111.91) rotate(152.79)">n</text><text class="cls-1" transform="translate(86.67 115.7) rotate(159.1)">i</text><text class="cls-1" transform="translate(83.61 117.03) rotate(165.39)">n</text><text class="cls-1" transform="translate(75.46 119.19) rotate(174.52)">g</text><text class="cls-1" transform="translate(66.59 119.91) rotate(-179.07)"> </text><text class="cls-1" transform="matrix(-0.99, -0.13, 0.13, -0.99, 63.3, 120.02)">p</text><text class="cls-1" transform="translate(54.5 118.76) rotate(-166.29)">l</text><text class="cls-1" transform="translate(51.2 118.13) rotate(-159.76)">a</text><text class="cls-1" transform="translate(42.92 114.96) rotate(-152.53)">t</text><text class="cls-1" transform="matrix(-0.85, -0.53, 0.53, -0.85, 38.63, 112.72)">f</text><text class="cls-1" transform="matrix(-0.78, -0.63, 0.63, -0.78, 34.97, 110.57)">o</text><text class="cls-1" transform="translate(28.53 105.26) rotate(-134.1)">r</text><text class="cls-1" transform="matrix(-0.56, -0.83, 0.83, -0.56, 24.85, 102.04)">m</text><text class="cls-1" transform="translate(17.44 90.53) rotate(-115.47)"> </text><text class="cls-1" transform="translate(15.98 87.52) rotate(-111.39)">f</text><text class="cls-1" transform="translate(14.31 83.63) rotate(-104.7)">o</text><text class="cls-1" transform="translate(12.28 75.52) rotate(-97.65)">r</text><text class="cls-1" transform="translate(11.64 70.56) rotate(-93.27)"> </text><text class="cls-1" transform="translate(11.32 67.27) rotate(-87.35)">e</text><text class="cls-1" transform="matrix(0.19, -0.98, 0.98, 0.19, 11.68, 59.26)">v</text><text class="cls-1" transform="translate(13.05 51.9) rotate(-70.95)">e</text><text class="cls-1" transform="translate(15.75 44.31) rotate(-64.05)">r</text><text class="cls-1" transform="matrix(0.54, -0.84, 0.84, 0.54, 17.83, 39.82)">y</text><text class="cls-1" transform="matrix(0.62, -0.78, 0.78, 0.62, 22.03, 33.44)"> </text><text class="cls-1" transform="translate(24.12 30.78) rotate(-48.07)">l</text><text class="cls-1" transform="matrix(0.74, -0.67, 0.67, 0.74, 26.24, 28.22)">e</text><text class="cls-1" transform="matrix(0.84, -0.55, 0.55, 0.84, 32.17, 22.79)">a</text><text class="cls-1" transform="matrix(0.9, -0.44, 0.44, 0.9, 39.64, 18.02)">r</text><text class="cls-1" transform="translate(44.01 15.75) rotate(-18.83)">n</text><text class="cls-1" transform="translate(52.01 13.02) rotate(-10.08)">e</text><text class="cls-1" transform="matrix(1, -0.06, 0.06, 1, 59.96, 11.68)">r</text><text class="cls-1" transform="translate(64.96 11.43) rotate(0.95)">.</text><text class="cls-1" transform="matrix(1, 0.08, -0.08, 1, 68.11, 11.48)"> </text></g></g></svg>