<svg xmlns="http://www.w3.org/2000/svg" viewBox="0 0 131.31 131.03"><defs><style>.cls-1{font-size:13.5px;fill:#151c2c;font-family:Poppins-Medium, Poppins;font-weight:500;}</style></defs><g id="Layer_2" data-name="Layer 2"><g id="Layer_1-2" data-name="Layer 1"><text class="cls-1" transform="translate(70.49 11.24) rotate(9.32)">S</text><text class="cls-1" transform="translate(78.22 12.47) rotate(17.88)">o</text><text class="cls-1" transform="translate(86.14 14.83) rotate(28.36)">M</text><text class="cls-1" transform="translate(96.23 20.43) rotate(38.63)">e</text><text class="cls-1" transform="translate(102.48 25.56) rotate(44.6)"> </text><text class="cls-1" transform="translate(104.94 27.77) rotate(50.81)">h</text><text class="cls-1" transform="matrix(0.51, 0.86, -0.86, 0.51, 110.27, 34.3)">e</text><text class="cls-1" transform="translate(114.28 41.32) rotate(65.5)">l</text><text class="cls-1" transform="matrix(0.31, 0.95, -0.95, 0.31, 115.83, 44.29)">p</text><text class="cls-1" transform="translate(118.51 52.71) rotate(80.37)">s</text><text class="cls-1" transform="translate(119.6 59.63) rotate(85.81)"> </text><text class="cls-1" transform="matrix(-0.03, 1, -1, -0.03, 120, 62.9)">u</text><text class="cls-1" transform="translate(119.68 71.37) rotate(100.04)">s</text><text class="cls-1" transform="translate(118.53 78.18) rotate(107.96)">e</text><text class="cls-1" transform="translate(115.97 85.83) rotate(114.87)">r</text><text class="cls-1" transform="translate(113.95 90.34) rotate(121.17)">s</text><text class="cls-1" transform="matrix(-0.6, 0.8, -0.8, -0.6, 110.25, 96.3)"> </text><text class="cls-1" transform="translate(108.36 99.01) rotate(132.03)">s</text><text class="cls-1" transform="matrix(-0.75, 0.67, -0.67, -0.75, 103.66, 104.16)">t</text><text class="cls-1" transform="translate(100.07 107.38) rotate(143.36)">r</text><text class="cls-1" transform="translate(96.16 110.43) rotate(150.23)">e</text><text class="cls-1" transform="translate(89.24 114.45) rotate(159.14)">a</text><text class="cls-1" transform="translate(81.16 117.84) rotate(170.98)">m</text><text class="cls-1" transform="translate(67.58 119.59) rotate(179.07)">l</text><text class="cls-1" transform="matrix(-1, -0.06, 0.06, -1, 64.18, 119.63)">i</text><text class="cls-1" transform="translate(60.82 119.58) rotate(-170.35)">n</text><text class="cls-1" transform="translate(52.5 118.17) rotate(-161.61)">e</text><text class="cls-1" transform="translate(44.86 115.51) rotate(-155.56)"> </text><text class="cls-1" transform="translate(41.81 114.16) rotate(-151.23)">t</text><text class="cls-1" transform="translate(37.55 111.97) rotate(-144.22)">h</text><text class="cls-1" transform="translate(30.69 107.04) rotate(-135.58)">e</text><text class="cls-1" transform="matrix(-0.64, -0.77, 0.77, -0.64, 24.99, 101.29)">i</text><text class="cls-1" transform="translate(22.8 98.71) rotate(-125.16)">r</text><text class="cls-1" transform="translate(19.93 94.58) rotate(-120.74)"> </text><text class="cls-1" transform="translate(18.12 91.84) rotate(-114.57)">o</text><text class="cls-1" transform="translate(14.64 84.3) rotate(-105.68)">n</text><text class="cls-1" transform="translate(12.47 76.07) rotate(-99.39)">l</text><text class="cls-1" transform="matrix(-0.1, -0.99, 0.99, -0.1, 11.91, 72.7)">i</text><text class="cls-1" transform="translate(11.38 69.39) rotate(-89.07)">n</text><text class="cls-1" transform="translate(11.47 60.92) rotate(-80.95)">e</text><text class="cls-1" transform="matrix(0.26, -0.97, 0.97, 0.26, 12.85, 52.96)"> </text><text class="cls-1" transform="translate(13.54 49.74) rotate(-68.44)">p</text><text class="cls-1" transform="translate(16.9 41.54) rotate(-61.14)">r</text><text class="cls-1" transform="translate(19.19 37.17) rotate(-54.28)">e</text><text class="cls-1" transform="translate(23.91 30.64) rotate(-46.41)">s</text><text class="cls-1" transform="matrix(0.78, -0.62, 0.62, 0.78, 28.62, 25.6)">e</text><text class="cls-1" transform="translate(34.88 20.55) rotate(-29.9)">n</text><text class="cls-1" transform="translate(42.2 16.34) rotate(-21.3)">c</text><text class="cls-1" transform="matrix(0.97, -0.22, 0.22, 0.97, 49.44, 13.48)">e</text><text class="cls-1" transform="translate(57.36 11.79) rotate(-7.02)">.</text></g></g></svg>