<svg width="31" height="35" viewBox="0 0 31 35" fill="none" xmlns="http://www.w3.org/2000/svg">
<path d="M30.2884 30.9615C29.3962 30.9606 28.5408 30.6057 27.9098 29.9748C27.2789 29.3438 26.924 28.4884 26.9231 27.5962V26.25C26.9218 25.2689 26.6147 24.3126 26.0446 23.5142C25.4745 22.7157 24.6696 22.1148 23.7421 21.7951C25.1124 21.0393 26.2551 19.93 27.0513 18.5828C27.8475 17.2355 28.268 15.6995 28.2692 14.1346V12.7885C28.2725 11.1304 27.8017 9.50586 26.9125 8.10639C27.352 6.83314 27.5123 5.48019 27.3824 4.13949C27.2525 2.79879 26.8355 1.50176 26.1598 0.33656C26.1007 0.234242 26.0158 0.149276 25.9134 0.090201C25.8111 0.0311263 25.6951 2.46969e-05 25.5769 2.16955e-05C24.0571 -0.00324558 22.5593 0.362565 21.2122 1.06601C19.865 1.76946 18.7088 2.78951 17.8429 4.03848L13.1186 4.03831C12.2527 2.78939 11.0965 1.76939 9.74931 1.06598C8.40216 0.362561 6.90435 -0.00323579 5.38461 2.16955e-05C5.26647 2.46969e-05 5.1504 0.0311263 5.04808 0.090201C4.94577 0.149276 4.8608 0.234242 4.80173 0.33656C4.12597 1.50176 3.70899 2.79879 3.57911 4.13949C3.44924 5.48019 3.60952 6.83314 4.04906 8.10639C3.15978 9.50586 2.68904 11.1304 2.69231 12.7885V14.1346C2.6935 15.6995 3.11406 17.2355 3.91025 18.5828C4.70643 19.93 5.84912 21.0393 7.21942 21.7951C6.29188 22.1148 5.48706 22.7157 4.91694 23.5142C4.34682 24.3126 4.03976 25.2689 4.03846 26.25V27.5962C4.03748 28.4884 3.6826 29.3438 3.05168 29.9748C2.42076 30.6057 1.56533 30.9606 0.673077 30.9615C0.494566 30.9615 0.323366 31.0325 0.19714 31.1587C0.0709134 31.2849 0 31.4561 0 31.6346C0 31.8131 0.0709134 31.9843 0.19714 32.1106C0.323366 32.2368 0.494566 32.3077 0.673077 32.3077C1.92223 32.3063 3.11983 31.8095 4.00311 30.9262C4.8864 30.0429 5.38323 28.8453 5.38461 27.5962V26.25C5.38559 25.3578 5.74047 24.5023 6.37139 23.8714C7.00231 23.2405 7.85774 22.8856 8.75 22.8846H11.4423V30.2885C11.4413 31.1807 11.0864 32.0361 10.4555 32.6671C9.8246 33.298 8.96917 33.6529 8.07692 33.6538C7.89841 33.6538 7.72721 33.7248 7.60098 33.851C7.47475 33.9772 7.40384 34.1484 7.40384 34.3269C7.40384 34.5054 7.47475 34.6766 7.60098 34.8029C7.72721 34.9291 7.89841 35 8.07692 35C9.32607 34.9986 10.5237 34.5018 11.407 33.6185C12.2902 32.7352 12.7871 31.5376 12.7885 30.2885V22.8846H18.1731V30.2885C18.1744 31.5376 18.6713 32.7352 19.5546 33.6185C20.4379 34.5018 21.6355 34.9986 22.8846 35C23.0631 35 23.2343 34.9291 23.3605 34.8029C23.4868 34.6766 23.5577 34.5054 23.5577 34.3269C23.5577 34.1484 23.4868 33.9772 23.3605 33.851C23.2343 33.7248 23.0631 33.6538 22.8846 33.6538C21.9923 33.6529 21.1369 33.298 20.506 32.6671C19.8751 32.0361 19.5202 31.1807 19.5192 30.2885V22.8846H22.2115C23.1038 22.8856 23.9592 23.2405 24.5901 23.8714C25.2211 24.5023 25.5759 25.3578 25.5769 26.25V27.5962C25.5783 28.8453 26.0751 30.0429 26.9584 30.9262C27.8417 31.8095 29.0393 32.3063 30.2884 32.3077C30.467 32.3077 30.6382 32.2368 30.7644 32.1106C30.8906 31.9843 30.9615 31.8131 30.9615 31.6346C30.9615 31.4561 30.8906 31.2849 30.7644 31.1587C30.6382 31.0325 30.467 30.9615 30.2884 30.9615ZM4.03846 14.1346V12.7885C4.03535 11.284 4.49342 9.81471 5.35096 8.57855C5.4134 8.48839 5.45286 8.38434 5.46591 8.27545C5.47896 8.16656 5.4652 8.05613 5.42584 7.95377C5.0142 6.89166 4.8328 5.75425 4.89363 4.61679C4.95446 3.47932 5.25614 2.36775 5.7787 1.3556C7.06753 1.41602 8.32294 1.78541 9.4391 2.43263C10.5553 3.07986 11.4995 3.98595 12.1921 5.07451C12.253 5.16961 12.3368 5.24786 12.4359 5.30205C12.535 5.35625 12.6461 5.38465 12.759 5.38463L18.2025 5.38447C18.3154 5.38448 18.4265 5.35608 18.5256 5.30188C18.6247 5.24769 18.7085 5.16944 18.7694 5.07435C19.4621 3.98583 20.4063 3.07979 21.5225 2.4326C22.6386 1.7854 23.894 1.41603 25.1828 1.3556C25.7054 2.36775 26.007 3.47933 26.0679 4.61679C26.1287 5.75424 25.9473 6.89165 25.5357 7.95377C25.4963 8.05612 25.4825 8.16656 25.4956 8.27545C25.5086 8.38435 25.5481 8.4884 25.6106 8.57855C26.4681 9.81471 26.9262 11.284 26.9231 12.7885V14.1346C26.9208 16.0976 26.1401 17.9795 24.7521 19.3675C23.3641 20.7555 21.4822 21.5362 19.5192 21.5385H11.4423C9.47936 21.5362 7.59746 20.7555 6.20945 19.3675C4.82145 17.9795 4.04069 16.0976 4.03846 14.1346V14.1346Z" fill="white"/>
</svg>
