<svg width="35" height="35" viewBox="0 0 12 12" fill="none" xmlns="http://www.w3.org/2000/svg">
<path d="M11.2174 0H0.782609C0.575122 0.000241645 0.376203 0.0827724 0.229488 0.229488C0.0827724 0.376203 0.000241645 0.575122 0 0.782609V11.2174C0.000241645 11.4249 0.0827724 11.6238 0.229488 11.7705C0.376203 11.9172 0.575122 11.9998 0.782609 12H11.2174C11.4249 11.9998 11.6238 11.9172 11.7705 11.7705C11.9172 11.6238 11.9998 11.4249 12 11.2174V0.782609C11.9998 0.575122 11.9172 0.376203 11.7705 0.229488C11.6238 0.0827724 11.4249 0.000241645 11.2174 0V0ZM11.4783 11.2174C11.4782 11.2866 11.4507 11.3529 11.4018 11.4018C11.3529 11.4507 11.2866 11.4782 11.2174 11.4783H0.782609C0.713448 11.4782 0.647145 11.4507 0.598241 11.4018C0.549338 11.3529 0.521825 11.2866 0.521739 11.2174V0.782609C0.521825 0.713448 0.549338 0.647145 0.598241 0.598241C0.647145 0.549338 0.713448 0.521825 0.782609 0.521739H11.2174C11.2866 0.521825 11.3529 0.549338 11.4018 0.598241C11.4507 0.647145 11.4782 0.713448 11.4783 0.782609V11.2174ZM3.65217 4.95659V9.1305C3.65217 9.19969 3.62469 9.26604 3.57577 9.31496C3.52684 9.36388 3.46049 9.39137 3.3913 9.39137C3.32212 9.39137 3.25576 9.36388 3.20684 9.31496C3.15792 9.26604 3.13043 9.19969 3.13043 9.1305V4.95659C3.13043 4.8874 3.15792 4.82105 3.20684 4.77212C3.25576 4.7232 3.32212 4.69572 3.3913 4.69572C3.46049 4.69572 3.52684 4.7232 3.57577 4.77212C3.62469 4.82105 3.65217 4.8874 3.65217 4.95659ZM9.3913 6.78267V9.1305C9.3913 9.19969 9.36382 9.26604 9.3149 9.31496C9.26597 9.36388 9.19962 9.39137 9.13043 9.39137C9.06125 9.39137 8.99489 9.36388 8.94597 9.31496C8.89705 9.26604 8.86957 9.19969 8.86957 9.1305V6.78267C8.86957 6.36755 8.70466 5.96943 8.41112 5.6759C8.11759 5.38236 7.71947 5.21746 7.30435 5.21746C6.88923 5.21746 6.49111 5.38236 6.19757 5.6759C5.90404 5.96943 5.73913 6.36755 5.73913 6.78267V9.1305C5.73913 9.19969 5.71165 9.26604 5.66272 9.31496C5.6138 9.36388 5.54745 9.39137 5.47826 9.39137C5.40907 9.39137 5.34272 9.36388 5.2938 9.31496C5.24488 9.26604 5.21739 9.19969 5.21739 9.1305V4.95659C5.21739 4.8874 5.24488 4.82105 5.2938 4.77212C5.34272 4.7232 5.40907 4.69572 5.47826 4.69572C5.54745 4.69572 5.6138 4.7232 5.66272 4.77212C5.71165 4.82105 5.73913 4.8874 5.73913 4.95659V5.4045C6.01908 5.08601 6.38945 4.86041 6.80088 4.75779C7.21231 4.65516 7.64524 4.68038 8.04197 4.83008C8.4387 4.97979 8.78038 5.24686 9.02145 5.5957C9.26253 5.94454 9.39154 6.35857 9.3913 6.78261V6.78267ZM3.91304 2.86957C3.91304 2.97276 3.88244 3.07363 3.82511 3.15943C3.76779 3.24523 3.6863 3.3121 3.59097 3.35159C3.49563 3.39108 3.39073 3.40141 3.28952 3.38128C3.18831 3.36115 3.09535 3.31146 3.02238 3.23849C2.94941 3.16552 2.89972 3.07256 2.87959 2.97135C2.85946 2.87014 2.86979 2.76524 2.90928 2.6699C2.94877 2.57457 3.01564 2.49308 3.10144 2.43576C3.18724 2.37843 3.28811 2.34783 3.3913 2.34783C3.52963 2.348 3.66223 2.40302 3.76004 2.50083C3.85785 2.59864 3.91287 2.73124 3.91304 2.86957V2.86957Z" fill="white"/>
</svg>
